<svg xmlns="http://www.w3.org/2000/svg" xmlns:xlink="http://www.w3.org/1999/xlink" width="900" height="400" viewBox="0 0 900 400">
	<defs>
		<!-- Trophy plate gradients -->
		<linearGradient id="trophy_Normal" x1="565" y1="103.5" x2="565" y2="46.5" gradientUnits="userSpaceOnUse">
			<stop offset="0" stop-color="#dadada"/>
			<stop offset="0.5" stop-color="#dadada"/>
			<stop offset="0.5" stop-color="#f9f9f9"/>
			<stop offset="1" stop-color="#f9f9f9"/>
		</linearGradient>
		<linearGradient id="trophy_Bronze" x1="565" y1="103.5" x2="565" y2="46.5" gradientUnits="userSpaceOnUse">
			<stop offset="0" stop-color="#dd723e"/>
			<stop offset="0.5" stop-color="#dd723e"/>
			<stop offset="0.5" stop-color="#fb9a6a"/>
			<stop offset="1" stop-color="#fb9a6a"/>
		</linearGradient>
		<linearGradient id="trophy_Silver" x1="565" y1="103.5" x2="565" y2="46.5" gradientUnits="userSpaceOnUse">
			<stop offset="0" stop-color="#9db3df"/>
			<stop offset="0.5" stop-color="#9db3df"/>
			<stop offset="0.5" stop-color="#dde4f7"/>
			<stop offset="1" stop-color="#dde4f7"/>
		</linearGradient>
		<linearGradient id="trophy_Gold" x1="565" y1="103.5" x2="565" y2="46.5" gradientUnits="userSpaceOnUse">
			<stop offset="0" stop-color="#fabf05"/>
			<stop offset="0.5" stop-color="#fabf05"/>
			<stop offset="0.5" stop-color="#ffdf4b"/>
			<stop offset="1" stop-color="#ffdf4b"/>
		</linearGradient>
		<linearGradient id="trophy_Rainbow">
			<stop offset="0" stop-color="#fdc9aa"/>
			<stop offset="0.2" stop-color="#fdfd95"/>
			<stop offset="0.5" stop-color="#ddfdb6"/>
			<stop offset="0.65" stop-color="#ddfdfd"/>
			<stop offset="0.8" stop-color="#fde4fd"/>
			<stop offset="1" stop-color="#dff6fd"/>
		</linearGradient>
		<linearGradient id="trophy-rainbow-border">
			<stop offset="0" stop-color="#ff6e53"/>
			<stop offset="0.1" stop-color="#ff6e53"/>
			<stop offset="0.1" stop-color="#ffd360"/>
			<stop offset="0.2" stop-color="#ffd360"/>
			<stop offset="0.2" stop-color="#ffed6e"/>
			<stop offset="0.3" stop-color="#ffed6e"/>
			<stop offset="0.3" stop-color="#bdf341"/>
			<stop offset="0.35" stop-color="#bdf341"/>
			<stop offset="0.35" stop-color="#7adef9"/>
			<stop offset="0.4" stop-color="#7adef9"/>
			<stop offset="0.4" stop-color="#ff6e53"/>
			<stop offset="0.55" stop-color="#ff6e53"/>
			<stop offset="0.55" stop-color="#ffd360"/>
			<stop offset="0.65" stop-color="#ffd360"/>
			<stop offset="0.65" stop-color="#ffed6e"/>
			<stop offset="0.75" stop-color="#ffed6e"/>
			<stop offset="0.75" stop-color="#bdf341"/>
			<stop offset="0.85" stop-color="#bdf341"/>
			<stop offset="0.85" stop-color="#7adef9"/>
			<stop offset="0.9" stop-color="#7adef9"/>
			<stop offset="0.9" stop-color="#ff6e53"/>
			<stop offset="1" stop-color="#ff6e53"/>
		</linearGradient>
		<linearGradient id="trophy-rainbow-shadow">
			<stop offset="0" stop-color="#c13e2c"/>
			<stop offset="0.1" stop-color="#c13e2c"/>
			<stop offset="0.1" stop-color="#b9782e"/>
			<stop offset="0.2" stop-color="#b9782e"/>
			<stop offset="0.2" stop-color="#b99f35"/>
			<stop offset="0.3" stop-color="#b99f35"/>
			<stop offset="0.3" stop-color="#5ba81f"/>
			<stop offset="0.35" stop-color="#5ba81f"/>
			<stop offset="0.35" stop-color="#3b88b0"/>
			<stop offset="0.4" stop-color="#3b88b0"/>
			<stop offset="0.4" stop-color="#c13e2c"/>
			<stop offset="0.55" stop-color="#c13e2c"/>
			<stop offset="0.55" stop-color="#b9782e"/>
			<stop offset="0.65" stop-color="#b9782e"/>
			<stop offset="0.65" stop-color="#b99f35"/>
			<stop offset="0.75" stop-color="#b99f35"/>
			<stop offset="0.75" stop-color="#5ba81f"/>
			<stop offset="0.85" stop-color="#5ba81f"/>
			<stop offset="0.85" stop-color="#3b88b0"/>
			<stop offset="0.9" stop-color="#3b88b0"/>
			<stop offset="0.9" stop-color="#c13e2c"/>
			<stop offset="1" stop-color="#c13e2c"/>
		</linearGradient>


		<!-- Rank plate gradients -->
		<linearGradient id="rank-bronze">
			<stop offset="0" stop-color="#cf651c"/>
			<stop offset="0.5" stop-color="#f7e5c4"/>
			<stop offset="1" stop-color="#cf651c"/>
		</linearGradient>
		<linearGradient id="rank-silver">
			<stop offset="0" stop-color="#8b93bd"/>
			<stop offset="0.5" stop-color="#feffff"/>
			<stop offset="1" stop-color="#8b93bd"/>
		</linearGradient>
		<linearGradient id="rank-gold">
			<stop offset="0" stop-color="#c06c1f"/>
			<stop offset="0.4" stop-color="#fae13a"/>
			<stop offset="0.5" stop-color="#fffffb"/>
			<stop offset="0.6" stop-color="#fae13a"/>
			<stop offset="1" stop-color="#c06c1f"/>
		</linearGradient>
		<linearGradient id="rank-rainbow">
			<stop offset="0" stop-color="#fb6630"/>
			<stop offset="0.2" stop-color="#feca0e"/>
			<stop offset="0.3" stop-color="#fafa04"/>
			<stop offset="0.4" stop-color="#96fb0e"/>
			<stop offset="0.6" stop-color="#6bedec"/>
			<stop offset="0.8" stop-color="#eb95fb"/>
			<stop offset="1" stop-color="#8dadf9"/>
		</linearGradient>
	</defs>
	<title>Template</title>
	<g id="Layer_1" data-name="Layer 1">
		<g id="Background"><rect width="900" height="400" style="fill: #b9e4fa"/></g>
		<g id="Main_plate" data-name="Main plate"><rect x="20" y="25" width="860" height="260" rx="15.44" style="fill: #6f8996"/><rect id="Main_plate-2" data-name="Main plate" x="20" y="20" width="860" height="260" rx="15.44" style="fill: #fff"/></g>
		<rect id="Comment_plate" data-name="Comment plate" x="20" y="300" width="860" height="80" rx="22.69" style="fill: #dcf3ff"/>

		<g id="Rank_plate" data-name="Rank plate">
			<rect id="rank_shadow" x="608" y="131" width="247" height="60" rx="10.95" style="fill: #a3aebe"/>
			<g>
				<!-- Rank plate background -->
				<rect id="rank_bg" x="609" y="127" width="245" height="58" rx="9.95" style="fill: #FFF"/>
				<path id="rank_border" d="M844.05,128a9,9,0,0,1,9,8.95v38.1a9,9,0,0,1-9,8.95H619a9,9,0,0,1-9-8.95V137a9,9,0,0,1,9-8.95h225.1m0-2H619A11,11,0,0,0,608,137v38.1A11,11,0,0,0,619,186h225.1a11,11,0,0,0,11-10.95V137a11,11,0,0,0-11-10.95Z" style="fill: #a3aebe"/>
			</g>
			<g><rect x="702" y="134" width="144.52" height="44" rx="7.31" style="fill: #444"/><path d="M839.21,135a6.32,6.32,0,0,1,6.31,6.31v29.38a6.32,6.32,0,0,1-6.31,6.31H709.31a6.32,6.32,0,0,1-6.31-6.31V141.31a6.32,6.32,0,0,1,6.31-6.31h129.9m0-2H709.31a8.31,8.31,0,0,0-8.31,8.31v29.38a8.31,8.31,0,0,0,8.31,8.31h129.9a8.31,8.31,0,0,0,8.31-8.31V141.31a8.31,8.31,0,0,0-8.31-8.31Z"/></g>
			<g><path d="M690.43,141.54h-1.76a3,3,0,0,0-2.68-1.65h-2.64a3,3,0,0,0-2.68,1.65h-4.95a3.57,3.57,0,0,0-.73.1l-1.57-1.22a3,3,0,0,0-4.17.48c-.78.95-1.37,1.67-1.78,2.13s-.91,1-1.56,1.61l-1.28,1.23a7.41,7.41,0,0,0-5.1-1.88,23.92,23.92,0,0,0-3.69.43l-2.72.48a2.76,2.76,0,0,0-.24-1.13,3,3,0,0,0-1.75-1.64,39.72,39.72,0,0,0-8.66-1.93,3,3,0,0,0-3.24,2.18l-.15.55a3,3,0,0,0-.84.54l0,.06a3,3,0,0,0-2.84-2.08H622.76a3,3,0,0,0-3,3v2.12a3,3,0,0,0,.9,2.14,3,3,0,0,0,2.14.86h.72a9.18,9.18,0,0,0-.35,2.52,8.83,8.83,0,0,0,1,4.17,7.51,7.51,0,0,0,.79,1.17h0a3,3,0,0,0-3,3V172a3,3,0,0,0,3,3h2.87a3,3,0,0,1,4.37,0h3.34l.32,0,.17,0h3.06a3,3,0,0,0,2.8-1.93l0-.06h.78l0,.08a3,3,0,0,0,2.79,1.91h3a3,3,0,0,0,1.19-.27,2.94,2.94,0,0,0,1.22.27h2.85a3,3,0,0,1,5,0h2.87a2.83,2.83,0,0,1,2,0h2.86a3,3,0,0,0,2.69-1.68l.58.65a3,3,0,0,0,2.26,1h2.2a3,3,0,0,0,2.53-1.4,9.44,9.44,0,0,0,5.37,1.62,8.32,8.32,0,0,0,2.68-.43,2.82,2.82,0,0,0,1.09.21h2.13a3,3,0,0,0,3-3v-6.48a2.89,2.89,0,0,0-.12-.84,2.76,2.76,0,0,0,0-.64,8,8,0,0,0-4-5.62,8.15,8.15,0,0,0,2.63-6.18,9.53,9.53,0,0,0-.34-2.68h1.27a3,3,0,0,0,3-3v-2A3,3,0,0,0,690.43,141.54Z" style="fill: #ccc9db"/><path d="M690.43,139.54h-1.76a3,3,0,0,0-2.68-1.65h-2.64a3,3,0,0,0-2.68,1.65h-4.95a3.57,3.57,0,0,0-.73.1l-1.57-1.22a3,3,0,0,0-4.17.48c-.78.95-1.37,1.67-1.78,2.13s-.91,1-1.56,1.61l-1.28,1.23a7.41,7.41,0,0,0-5.1-1.88,23.92,23.92,0,0,0-3.69.43l-2.72.48a2.76,2.76,0,0,0-.24-1.13,3,3,0,0,0-1.75-1.64,39.72,39.72,0,0,0-8.66-1.93,3,3,0,0,0-3.24,2.18l-.15.55a3,3,0,0,0-.84.54l0,.06a3,3,0,0,0-2.84-2.08H622.76a3,3,0,0,0-3,3v2.12a3,3,0,0,0,.9,2.14,3,3,0,0,0,2.14.86h.72a9.18,9.18,0,0,0-.35,2.52,8.83,8.83,0,0,0,1,4.17,7.51,7.51,0,0,0,.79,1.17h0a3,3,0,0,0-3,3V170a3,3,0,0,0,3,3h2.87a3,3,0,0,1,4.37,0h3.34l.32,0,.17,0h3.06a3,3,0,0,0,2.8-1.93l0-.06h.78l0,.08a3,3,0,0,0,2.79,1.91h3a3,3,0,0,0,1.19-.27,2.94,2.94,0,0,0,1.22.27h2.85a3,3,0,0,1,5,0h2.87a2.83,2.83,0,0,1,2,0h2.86a3,3,0,0,0,2.69-1.68l.58.65a3,3,0,0,0,2.26,1h2.2a3,3,0,0,0,2.53-1.4,9.44,9.44,0,0,0,5.37,1.62,8.32,8.32,0,0,0,2.68-.43,2.82,2.82,0,0,0,1.09.21h2.13a3,3,0,0,0,3-3v-6.48a2.89,2.89,0,0,0-.12-.84,2.76,2.76,0,0,0,0-.64,8,8,0,0,0-4-5.62,8.15,8.15,0,0,0,2.63-6.18,9.53,9.53,0,0,0-.34-2.68h1.27a3,3,0,0,0,3-3v-2A3,3,0,0,0,690.43,139.54Z" style="fill: #fff"/><g><g><path d="M632.17,170,630,166.61H627.8V170h-2.87V158.42h5c2.86,0,4.78,1.56,4.78,4.05a3.85,3.85,0,0,1-2,3.44l2.71,4ZM627.8,164h2.12c1.1,0,2-.61,2-1.56s-.86-1.52-2-1.52H627.8Z" style="fill: #3453aa"/><path d="M644.7,168h-4.88l-.76,2H636l4.9-11.53h2.75L648.53,170h-3Zm-.93-2.39-1.51-3.88-1.51,3.88Z" style="fill: #3453aa"/><path d="M657.47,161h-3.68v9h-2.85v-9h-3.67v-2.56h10.2Z" style="fill: #3453aa"/><path d="M661.63,158.42V170h-2.87V158.42Z" style="fill: #3453aa"/><path d="M674.26,158.42V170h-2.2l-5.53-6.33V170h-2.86V158.42h2.18l5.56,6.49v-6.49Z" style="fill: #3453aa"/><path d="M688.06,163.47V170h-2.13l-.12-1.41a4.49,4.49,0,0,1-3.65,1.63A5.83,5.83,0,0,1,676,164.3a5.92,5.92,0,0,1,6.15-6.1c2.83,0,5.27,1.58,5.76,4.32h-3a2.65,2.65,0,0,0-2.68-1.73,3.39,3.39,0,0,0,0,6.77,3.18,3.18,0,0,0,2.93-1.8l-3.31,0v-2.26Z" style="fill: #3453aa"/></g><g><path d="M634.24,153.51l-.09,2.23-1.06,0a8.34,8.34,0,0,1-4.14-.86,5.32,5.32,0,0,1-2.13-2.07,5.8,5.8,0,0,1-.65-2.76,7.22,7.22,0,0,1,3-5.58l-6.43.07v-2.12h12.59v2.14h-3.48a8,8,0,0,0-2.13,2.33,5.57,5.57,0,0,0-.94,3.06c0,2.38,1.46,3.58,4.37,3.58C633.5,153.56,633.86,153.54,634.24,153.51Zm.15-5.83-1.28.42a27.28,27.28,0,0,0-1.24-2.48l1.26-.42C633.68,146.19,634.1,147,634.39,147.68Zm2.69-.24-1.28.44c-.44-1-.84-1.86-1.19-2.5l1.23-.42A27.23,27.23,0,0,1,637.08,147.44Z" style="fill: #ff2c2c"/><path d="M641.2,155.92l-.3-2.11a18.74,18.74,0,0,0,5.69-.66c1.3-.45,1.95-1.17,1.95-2.19a2.24,2.24,0,0,0-.63-1.7,2.46,2.46,0,0,0-1.74-.59,5.86,5.86,0,0,0-2.93.85,6.87,6.87,0,0,0-2.35,2.26l-1.84-1.07a22.36,22.36,0,0,0,1.22-7l2.51.14a21.18,21.18,0,0,1-.63,4.37,7.32,7.32,0,0,1,2.11-1.07,7.42,7.42,0,0,1,2.32-.42,4.79,4.79,0,0,1,3.35,1.09,4,4,0,0,1,1.21,3.16,3.7,3.7,0,0,1-1,2.63,6.25,6.25,0,0,1-2.76,1.63A26.56,26.56,0,0,1,641.2,155.92Zm8.93-13-.93,2.1a17.21,17.21,0,0,0-3.79-1.23,35.54,35.54,0,0,0-3.83-.67l.55-2A36.28,36.28,0,0,1,650.13,143Z" style="fill: #ff8618"/><path d="M655.46,155.39l-.31-1.78a21.44,21.44,0,0,0,3.65-.45A4.28,4.28,0,0,0,661,152a3.17,3.17,0,0,0,.83-2.27,3.09,3.09,0,0,0-.7-2.13,2.31,2.31,0,0,0-1.83-.81,36.85,36.85,0,0,0-6.37,1.12l-.27-1.86,3.72-.65a21.14,21.14,0,0,1,3.17-.39,4.36,4.36,0,0,1,3.24,1.24,4.67,4.67,0,0,1,1.22,3.43Q664,155.27,655.46,155.39Z" style="fill: #ecbe05"/><path d="M674.22,154.61l-1.93,1.75-1.65-2c-.51-.61-1-1.16-1.45-1.64l-1.32-1.3c-.84-.84-1.37-1.39-1.57-1.64a2.49,2.49,0,0,1-.43-.77,3,3,0,0,1-.12-.88,2.67,2.67,0,0,1,.88-2c.21-.19.67-.63,1.38-1.33s1.28-1.28,1.7-1.76,1-1.23,1.87-2.23l2,1.54a58.55,58.55,0,0,1-4.44,4.68,8.2,8.2,0,0,0-.6.56c-.26.25-.39.38-.4.4a.25.25,0,0,0,0,.1.2.2,0,0,0,0,.11l1,1c1.31,1.27,2.3,2.26,3,3S673.51,153.69,674.22,154.61Z" style="fill: #46c50a"/><path d="M690.43,144.51H686v3.13a5.34,5.34,0,0,1,.51,2.55,5.15,5.15,0,0,1-1.73,4,7.59,7.59,0,0,1-4.65,1.72l-.63-2c2.3-.19,3.74-1.06,4.34-2.61a3.42,3.42,0,0,1-2.09.68,3.31,3.31,0,0,1-2.35-.88,2.92,2.92,0,0,1-.95-2.24,3.4,3.4,0,0,1,3.49-3.5,3.85,3.85,0,0,1,1.42.27v-1.16h-7.63v-2h7.63v-1.65H686v1.65h4.44Zm-7,3.77,0-.46a1.36,1.36,0,0,0-1.27-.57,1.12,1.12,0,0,0-.87.46,1.6,1.6,0,0,0-.39,1,1.49,1.49,0,0,0,.29.93.91.91,0,0,0,.75.38,1.39,1.39,0,0,0,1.1-.49A1.93,1.93,0,0,0,683.38,148.28Z" style="fill: #6a92ef"/></g></g></g>
		</g>

		<g id="Username_plate" data-name="Username plate"><rect x="275" y="131" width="326" height="60" rx="12.58" style="fill: #999"/><g><rect x="276" y="127" width="324" height="58" rx="11.58" style="fill: #fff"/><path d="M588.42,128A10.6,10.6,0,0,1,599,138.58v34.84A10.6,10.6,0,0,1,588.42,184H287.58A10.6,10.6,0,0,1,277,173.42V138.58A10.6,10.6,0,0,1,287.58,128H588.42m0-2H287.58A12.58,12.58,0,0,0,275,138.58v34.84A12.58,12.58,0,0,0,287.58,186H588.42A12.58,12.58,0,0,0,601,173.42V138.58A12.58,12.58,0,0,0,588.42,126Z" style="fill: #dedede"/></g><g><path d="M585.68,168.22l-5.77-9.66,5.73-10a2.26,2.26,0,0,0,0-2.34,2.5,2.5,0,0,0-2.13-1.15h-7a2.49,2.49,0,0,0-2.2,1.27l-1.09,2-1.08-2a2.5,2.5,0,0,0-2.2-1.27h-7a2.51,2.51,0,0,0-2.13,1.15,2.26,2.26,0,0,0-.26,1.82,13.36,13.36,0,0,0-8.71-3h-8.31A2.42,2.42,0,0,0,541,147.4v22a2.42,2.42,0,0,0,2.48,2.36h8.31a13.4,13.4,0,0,0,8.67-2.94,2.22,2.22,0,0,0,.26,1.77,2.51,2.51,0,0,0,2.14,1.17h6.65a2.51,2.51,0,0,0,2.15-1.17l1.51-2.48,1.52,2.48a2.51,2.51,0,0,0,2.15,1.17h6.68a2.51,2.51,0,0,0,2.14-1.17A2.27,2.27,0,0,0,585.68,168.22Z" style="fill: #b5b5b5"/><path d="M585.68,164.44l-5.77-9.66,5.73-10a2.24,2.24,0,0,0,0-2.33,2.48,2.48,0,0,0-2.13-1.16h-7a2.49,2.49,0,0,0-2.2,1.27l-1.09,2-1.08-2a2.5,2.5,0,0,0-2.2-1.27h-7a2.5,2.5,0,0,0-2.13,1.16,2.23,2.23,0,0,0-.26,1.81,13.36,13.36,0,0,0-8.71-3h-8.31a2.42,2.42,0,0,0-2.48,2.36v22a2.42,2.42,0,0,0,2.48,2.36h8.31a13.4,13.4,0,0,0,8.67-2.94,2.22,2.22,0,0,0,.26,1.77,2.49,2.49,0,0,0,2.14,1.17h6.65a2.51,2.51,0,0,0,2.15-1.17l1.51-2.48,1.52,2.48a2.51,2.51,0,0,0,2.15,1.17h6.68a2.49,2.49,0,0,0,2.14-1.17A2.27,2.27,0,0,0,585.68,164.44Z" style="fill: #fff"/><g><path d="M562.54,154.58c0,6.7-4.42,11-10.75,11h-8.31v-22h8.31C558.12,143.62,562.54,147.92,562.54,154.58Zm-5.95,0c0-3-2-5.2-4.8-5.2h-2.47v10.47h2.47C554.55,159.85,556.59,157.66,556.59,154.58Z" style="fill: #ff4628"/><path d="M576.84,165.61l-3.67-6-3.66,6h-6.65l6.39-10.77,0,0-6.39-11.19h7l3.28,6,3.29-6h7l-6.39,11.19,0,0,6.42,10.77Z" style="fill: #ff4628"/></g><g><path d="M562.54,154.58a14.18,14.18,0,0,0-.19-2.3l-5.77,2.24s0,0,0,.06c0,3.08-2,5.27-4.8,5.27h-2.47v-2.51l-5.84,2.26v6h8.31C558.12,165.61,562.54,161.28,562.54,154.58Z" style="fill: #faad07"/><polygon points="562.86 165.61 569.51 165.61 573.17 159.63 576.84 165.61 583.52 165.61 577.1 154.84 577.07 154.81 583.12 144.21 574.24 147.66 573.17 149.6 572.48 148.34 566.84 150.53 569.28 154.81 569.25 154.84 562.86 165.61" style="fill: #faad07"/></g></g></g>

		<g id="Trophy_plate" data-name="Trophy plate">
			<!-- Trophy plate -->
			<path id="trophy_shadow" d="M825,50H305a30,30,0,0,0,0,60H825a30,30,0,0,0,0-60Z" style="fill: #636363"/>
	        <rect id="trophy_bg" x="275" y="45" width="580" height="60" rx="30" style="fill: url(#trophy_Normal)"/>
	        <path id="trophy_border" d="M825,48a27,27,0,0,1,0,54H305a27,27,0,0,1,0-54H825m0-3H305a30,30,0,0,0,0,60H825a30,30,0,0,0,0-60Z" style="fill: #b8b8b8"/>
		</g>
	</g>
	<g id="Layer_2" data-name="Layer 2">
		<!--<image id="Image" width="939" height="939" transform="translate(45 45) scale(0.22)" xlink:href="https://maimaidx.jp/maimai-mobile/img/Icon/b945461ff5d69b7f.png"/>-->

		<!--<image id="Grade" width="88" height="41" transform="translate(275 209) scale(1.1)" xlink:href="https://maimaidx.jp/maimai-mobile/img/grade_12A3it9Zuf.png"/>-->

		<g id="Star_icon" data-name="Star icon">
			<path d="M434.19,253.26a7.18,7.18,0,0,1-2.38-.41l-5.1-1.81a2,2,0,0,0-1.42,0l-5.1,1.81a7.09,7.09,0,0,1-9.48-6.89l.15-5.42a2.13,2.13,0,0,0-.44-1.33l-3.31-4.3a7.11,7.11,0,0,1,3.63-11.15l5.2-1.53a2.16,2.16,0,0,0,1.14-.83l3.06-4.47a7.1,7.1,0,0,1,11.72,0l3.06,4.47a2.14,2.14,0,0,0,1.15.83l5.19,1.53a7.11,7.11,0,0,1,3.63,11.15l-3.31,4.29a2.18,2.18,0,0,0-.44,1.34l.15,5.42a7.08,7.08,0,0,1-7.1,7.3Z" style="fill: #a1adbd"/>
			<path d="M434.19,250.26a7.18,7.18,0,0,1-2.38-.41l-5.1-1.81a2,2,0,0,0-1.42,0l-5.1,1.81a7.09,7.09,0,0,1-9.48-6.89l.15-5.42a2.13,2.13,0,0,0-.44-1.33l-3.31-4.3a7.11,7.11,0,0,1,3.63-11.15l5.2-1.53a2.16,2.16,0,0,0,1.14-.83l3.06-4.47a7.1,7.1,0,0,1,11.72,0l3.06,4.47a2.14,2.14,0,0,0,1.15.83l5.19,1.53a7.11,7.11,0,0,1,3.63,11.15l-3.31,4.29a2.18,2.18,0,0,0-.44,1.34l.15,5.42a7.08,7.08,0,0,1-7.1,7.3Z" style="fill: #fff"/>
			<path d="M424.46,245.68l-5.11,1.82a4.6,4.6,0,0,1-6.14-4.47l.14-5.42a4.58,4.58,0,0,0-1-2.93l-3.3-4.3a4.6,4.6,0,0,1,2.34-7.22l5.2-1.53a4.59,4.59,0,0,0,2.5-1.82l3.06-4.47a4.62,4.62,0,0,1,7.6,0l3.06,4.47a4.59,4.59,0,0,0,2.5,1.82l5.2,1.53a4.6,4.6,0,0,1,2.34,7.22l-3.3,4.3a4.58,4.58,0,0,0-1,2.93l.14,5.42a4.6,4.6,0,0,1-6.14,4.47l-5.11-1.82A4.65,4.65,0,0,0,424.46,245.68Z" style="fill: #f4cb1f"/>
			<path d="M422.2,215.34l-3.06,4.47a4.59,4.59,0,0,1-2.5,1.82l-5.2,1.53a4.59,4.59,0,0,0-3,2.82L426,231V213.34A4.59,4.59,0,0,0,422.2,215.34Z" style="fill: #f9efba"/>
			<path d="M443.57,226a4.59,4.59,0,0,0-3-2.82l-5.2-1.53a4.59,4.59,0,0,1-2.5-1.82l-3.06-4.47a4.59,4.59,0,0,0-3.8-2V231Z" style="fill: #f0b91b"/>
			<path d="M442.9,230.38a4.56,4.56,0,0,0,.67-4.4L426,231l10.88,15.9a4.58,4.58,0,0,0,1.91-3.87l-.14-5.42a4.58,4.58,0,0,1,1-2.93Z" style="fill: #ee9f23"/>
			<path d="M426,231l-10.88,15.9a4.62,4.62,0,0,0,4.23.6l5.11-1.82a4.65,4.65,0,0,1,3.08,0l5.11,1.82a4.62,4.62,0,0,0,4.23-.6Z" style="fill: #e79316"/>
			<path d="M434.19,249.26a6,6,0,0,1-2-.35L427,247.09a3.09,3.09,0,0,0-2.08,0l-5.11,1.82a6.1,6.1,0,0,1-8.14-5.92l.15-5.42a3.1,3.1,0,0,0-.65-2l-3.3-4.29a6.1,6.1,0,0,1,3.11-9.58l5.2-1.53A3.13,3.13,0,0,0,417.9,219L421,214.5a6.09,6.09,0,0,1,10.06,0L434.1,219a3.13,3.13,0,0,0,1.68,1.22l5.2,1.53a6.1,6.1,0,0,1,3.11,9.58l-3.3,4.29a3.16,3.16,0,0,0-.65,2l.15,5.42a6.09,6.09,0,0,1-6.1,6.27ZM426,243.92a5.91,5.91,0,0,1,2,.35l5.11,1.81a3.09,3.09,0,0,0,4.14-3l-.14-5.42a6.15,6.15,0,0,1,1.26-3.89l3.3-4.29a3.1,3.1,0,0,0-1.58-4.87l-5.2-1.53a6.17,6.17,0,0,1-3.31-2.41l-3.06-4.47a3.1,3.1,0,0,0-5.12,0l-3.06,4.47a6.17,6.17,0,0,1-3.31,2.41l-5.2,1.53a3.1,3.1,0,0,0-1.58,4.87l3.3,4.29a6.15,6.15,0,0,1,1.26,3.89l-.14,5.42a3.09,3.09,0,0,0,4.14,3l5.11-1.81A5.91,5.91,0,0,1,426,243.92Z" style="fill: #584b4b"/>
		</g>

		<text id="Stars" transform="translate(450.65 246.68)" style="font-size: 35px;font-family: Meiryo"> stars</text>
		<text id="Max_rank" data-name="Max rank" transform="translate(855 218.68)" text-anchor="end" style="font-size: 22px;font-family: Meiryo">MAX Rank</text>
		<text id="Rank" transform="translate(840 169.68)" text-anchor="end" style="font-size: 35px;fill: #fff;font-family: Meiryo">Rank</text>
		<text id="Username" transform="translate(287.65 169.68)" style="font-size: 30px;font-family: Meiryo">Username</text>
		<text id="Comment" transform="translate(44.65 349.68)" style="font-size: 26px;font-family: Meiryo">Error: something went wrong</text>
		<text id="Trophy" transform="translate(570 86.68)" text-anchor="middle" style="font-size: 28px; fill: #fff; stroke: #000; font-weight: bold; stroke-width: 1px;font-family: Meiryo;">Trophy</text>
	</g>
</svg>
